<svg width="25" height="25" viewBox="0 0 25 25" fill="none" xmlns="http://www.w3.org/2000/svg">
<g clip-path="url(#clip0)">
<path d="M21.0938 10.9375H15.3646C14.9333 10.9375 14.5833 10.5875 14.5833 10.1562C14.5833 9.725 14.9333 9.375 15.3646 9.375H21.0938C21.525 9.375 21.875 9.725 21.875 10.1562C21.875 10.5875 21.525 10.9375 21.0938 10.9375Z" fill="#3865B0"/>
<path d="M21.0938 15.1041H15.3646C14.9333 15.1041 14.5833 14.7541 14.5833 14.3229C14.5833 13.8916 14.9333 13.5416 15.3646 13.5416H21.0938C21.525 13.5416 21.875 13.8916 21.875 14.3229C21.875 14.7541 21.525 15.1041 21.0938 15.1041Z" fill="#3865B0"/>
<path d="M21.0938 19.2709H15.3646C14.9333 19.2709 14.5833 18.9209 14.5833 18.4896C14.5833 18.0584 14.9333 17.7084 15.3646 17.7084H21.0938C21.525 17.7084 21.875 18.0584 21.875 18.4896C21.875 18.9209 21.525 19.2709 21.0938 19.2709Z" fill="#3865B0"/>
<path d="M9.63542 13.5417H4.94792C3.94271 13.5417 3.125 12.724 3.125 11.7188V10.1563C3.125 9.15108 3.94271 8.33337 4.94792 8.33337H9.63542C10.6406 8.33337 11.4583 9.15108 11.4583 10.1563V11.7188C11.4583 12.724 10.6406 13.5417 9.63542 13.5417ZM4.94792 9.89587C4.80417 9.89587 4.6875 10.0125 4.6875 10.1563V11.7188C4.6875 11.8625 4.80417 11.9792 4.94792 11.9792H9.63542C9.77917 11.9792 9.89583 11.8625 9.89583 11.7188V10.1563C9.89583 10.0125 9.77917 9.89587 9.63542 9.89587H4.94792Z" fill="#3865B0"/>
<path d="M9.63542 20.8333H4.94792C3.94271 20.8333 3.125 20.0156 3.125 19.0104V17.4479C3.125 16.4427 3.94271 15.625 4.94792 15.625H9.63542C10.6406 15.625 11.4583 16.4427 11.4583 17.4479V19.0104C11.4583 20.0156 10.6406 20.8333 9.63542 20.8333ZM4.94792 17.1875C4.80417 17.1875 4.6875 17.3042 4.6875 17.4479V19.0104C4.6875 19.1542 4.80417 19.2708 4.94792 19.2708H9.63542C9.77917 19.2708 9.89583 19.1542 9.89583 19.0104V17.4479C9.89583 17.3042 9.77917 17.1875 9.63542 17.1875H4.94792Z" fill="#3865B0"/>
<path d="M22.1354 23.9583H2.86458C1.28437 23.9583 0 22.6739 0 21.0937V3.90621C0 2.326 1.28437 1.04163 2.86458 1.04163H22.1354C23.7156 1.04163 25 2.326 25 3.90621V21.0937C25 22.6739 23.7156 23.9583 22.1354 23.9583ZM2.86458 2.60413C2.14687 2.60413 1.5625 3.1885 1.5625 3.90621V21.0937C1.5625 21.8114 2.14687 22.3958 2.86458 22.3958H22.1354C22.8531 22.3958 23.4375 21.8114 23.4375 21.0937V3.90621C23.4375 3.1885 22.8531 2.60413 22.1354 2.60413H2.86458Z" fill="#3865B0"/>
<path d="M24.2188 6.25H0.78125C0.35 6.25 0 5.9 0 5.46875C0 5.0375 0.35 4.6875 0.78125 4.6875H24.2188C24.65 4.6875 25 5.0375 25 5.46875C25 5.9 24.65 6.25 24.2188 6.25Z" fill="#3865B0"/>
</g>
<defs>
<clipPath id="clip0">
<rect width="25" height="25" fill="white"/>
</clipPath>
</defs>
</svg>
